<svg xmlns="http://www.w3.org/2000/svg" height="128" width="128"><defs><linearGradient id="a"><stop stop-color="#006ca2" offset="0"/><stop stop-color="#79cbca" offset=".526"/><stop stop-color="#e684ae" offset="1"/></linearGradient></defs><g fill="#fff"><path d="M128 86.863v-.517h-.03c-.365-10.726-16.317-25.42-27.023-25.42h-1.055v-4.029c2.699-2.252 4.962-5.794 6.728-9.863 2.313-.497 5.185-4.272 5.895-8.777.538-3.45.244-6.495-2.182-6.495.061-.903.132-1.816.132-2.689 0-1.228-.08-2.425-.203-3.612-.862-12.451-8.808-19.839-19.24-22.426-.06-.01-.121-.03-.192-.051-.365-.092-.761-.142-1.137-.213-.446-.081-.903-.173-1.37-.234-.1-.01-.202-.01-.304-.01-.7-.07-1.4-.122-2.11-.122h-.102c-13.557 0-24.557 9.803-24.557 25.318 0 1.025.081 2.05.183 3.055 7.255 5.327 11.77 13.344 12.481 23.146.112 1.137.193 2.212.213 3.207 2.09 2.689 2.74 6.393 1.969 11.314-.761 4.861-3.47 10.188-7.54 13a39.35 39.35 0 01-1.857 3.318c6.758 2.76 13.395 8.067 18.134 14.206H128V86.863z"/><path d="M84.417 115.915v-.517h-.03c-.366-10.726-16.318-25.43-27.023-25.43h-1.056V85.94c2.69-2.243 4.962-5.795 6.728-9.854 2.314-.497 5.185-4.282 5.886-8.787.527-3.45.253-6.495-2.182-6.495.07-.893.132-1.806.132-2.679a35.27 35.27 0 00-.193-3.612c-.863-12.451-8.808-19.839-19.25-22.426-.06-.01-.122-.03-.183-.05-.375-.092-.77-.133-1.146-.214-.447-.081-.913-.183-1.38-.244-.092-.01-.193 0-.295-.01-.7-.07-1.4-.121-2.1-.121h-.091c-13.578 0-24.567 9.802-24.567 25.307 0 1.198.08 2.375.213 3.532.02.335.08.7.121 1.035-1.704 0-2.263 2.892-1.796 5.977.67 4.241 3.298 7.925 5.47 8.686 1.745 4.11 3.988 7.732 6.657 9.955v4.028h-1.269c-10.695 0-26.657 14.704-27.013 25.43H0V128h84.417v-12.086z"/></g></svg>